<?xml version="1.0" encoding="utf-8"?>
<!-- Generator: Adobe Illustrator 15.0.2, SVG Export Plug-In . SVG Version: 6.00 Build 0)  -->
<!DOCTYPE svg PUBLIC "-//W3C//DTD SVG 1.1//EN" "http://www.w3.org/Graphics/SVG/1.1/DTD/svg11.dtd">
<svg version="1.1" id="Слой_1" xmlns="http://www.w3.org/2000/svg" xmlns:xlink="http://www.w3.org/1999/xlink" x="0px" y="0px"
	 width="26px" height="26px" viewBox="0 0 26 26" enable-background="new 0 0 26 26" xml:space="preserve">
<g>
	<circle fill="#26A6D1" cx="13" cy="13" r="13"/>
	<path fill="#FFFFFF" d="M20.6,8.875c-0.561,0.24-1.16,0.41-1.79,0.48c0.64-0.38,1.14-0.97,1.37-1.68c-0.6,0.35-1.27,0.6-1.98,0.74
		c-0.57-0.59-1.379-0.96-2.279-0.96c-1.721,0-3.11,1.36-3.11,3.03c0,0.24,0.021,0.47,0.08,0.69c-2.6-0.13-4.899-1.33-6.43-3.16
		c-0.271,0.44-0.43,0.96-0.43,1.52c0,1.05,0.55,1.98,1.39,2.52c-0.51-0.02-0.99-0.15-1.41-0.38c0,0.01,0,0.03,0,0.04
		c0,1.47,1.07,2.689,2.5,2.97c-0.26,0.07-0.54,0.1-0.82,0.1c-0.199,0-0.399-0.02-0.59-0.051c0.4,1.201,1.55,2.08,2.92,2.102
		c-1.069,0.809-2.42,1.299-3.88,1.299c-0.25,0-0.5-0.02-0.74-0.049c1.381,0.859,3.021,1.369,4.78,1.369c5.74,0,8.87-4.619,8.87-8.62
		c0-0.13,0-0.26,0-0.39C19.661,10.015,20.18,9.485,20.6,8.875z"/>
</g>
</svg>
