<?xml version="1.0" encoding="utf-8"?>
<!-- Generator: Adobe Illustrator 15.0.2, SVG Export Plug-In . SVG Version: 6.00 Build 0)  -->
<!DOCTYPE svg PUBLIC "-//W3C//DTD SVG 1.1//EN" "http://www.w3.org/Graphics/SVG/1.1/DTD/svg11.dtd">
<svg version="1.1" id="Слой_1" xmlns="http://www.w3.org/2000/svg" xmlns:xlink="http://www.w3.org/1999/xlink" x="0px" y="0px"
	 width="26px" height="26px" viewBox="0 0 26 26" enable-background="new 0 0 26 26" xml:space="preserve">
<g>
	<circle fill="#0E76A8" cx="13" cy="13" r="13"/>
	<path fill="#FFFFFF" d="M17.094,17.845v-4.36c0-0.89-0.26-1.79-1.311-1.79c-1.049,0-1.889,0.9-1.889,1.81v4.34h-2.411v-8.02h2.411
		v1.11c0.738-0.93,1.779-1.36,2.939-1.36s2.66,0.58,2.66,3.73v4.54H17.094z M7.494,9.854h2.4v7.99h-2.4V9.854z M8.684,9.055
		c-0.66,0-1.2-0.54-1.2-1.2c0-0.66,0.54-1.2,1.2-1.2c0.659,0,1.199,0.54,1.199,1.2C9.883,8.515,9.343,9.055,8.684,9.055z"/>
</g>
</svg>
