<?xml version="1.0" encoding="utf-8"?>
<!-- Generator: Adobe Illustrator 15.0.2, SVG Export Plug-In . SVG Version: 6.00 Build 0)  -->
<!DOCTYPE svg PUBLIC "-//W3C//DTD SVG 1.1//EN" "http://www.w3.org/Graphics/SVG/1.1/DTD/svg11.dtd">
<svg version="1.1" id="Слой_1" xmlns="http://www.w3.org/2000/svg" xmlns:xlink="http://www.w3.org/1999/xlink" x="0px" y="0px"
	 width="26px" height="26px" viewBox="0 0 26 26" enable-background="new 0 0 26 26" xml:space="preserve">
<g>
	<circle fill="#3F729B" cx="13" cy="13" r="13"/>
	<path fill="#FFFFFF" d="M17.42,5.8h-8.84C7.05,5.8,5.8,7.05,5.8,8.58v2.94v5.9c0,1.53,1.25,2.78,2.78,2.78h8.84
		c1.53,0,2.78-1.25,2.78-2.78v-5.9V8.58C20.201,7.05,18.951,5.8,17.42,5.8z M18.291,7.41h0.319v0.31V9.8l-2.409,0.01l-0.011-2.4
		H18.291z M13,10.59c2,0,2.41,1.88,2.41,2.41c0,1.33-1.08,2.41-2.41,2.41s-2.41-1.08-2.41-2.41C10.59,12.47,11,10.59,13,10.59z
		 M18.621,17.24c0,0.76-0.62,1.38-1.38,1.38h-8.51c-0.76,0-1.381-0.62-1.381-1.38V11.4h2c-0.18,0.45-0.289,1.08-0.289,1.6
		c0,2.17,1.77,3.939,3.939,3.939S16.94,15.17,16.94,13c0-0.52-0.109-1.15-0.289-1.6h1.97V17.24z"/>
</g>
</svg>
