<?xml version="1.0" encoding="utf-8"?>
<!-- Generator: Adobe Illustrator 15.0.2, SVG Export Plug-In . SVG Version: 6.00 Build 0)  -->
<!DOCTYPE svg PUBLIC "-//W3C//DTD SVG 1.1//EN" "http://www.w3.org/Graphics/SVG/1.1/DTD/svg11.dtd">
<svg version="1.1" id="Слой_1" xmlns="http://www.w3.org/2000/svg" xmlns:xlink="http://www.w3.org/1999/xlink" x="0px" y="0px"
	 width="26px" height="26px" viewBox="0 0 26 26" enable-background="new 0 0 26 26" xml:space="preserve">
<g>
	<circle fill="#86C9EF" cx="13" cy="13" r="13"/>
	<path fill="#FFFFFF" d="M5.633,10.85c1.2-0.96,2.9-3.05,4.229-3.05c1.32,0,1.65,1.56,1.83,2.98c0.181,1.42,0.701,4.53,1.4,4.53
		c0.7,0,2.301-2.75,2.211-3.811c-0.091-1.06-1.24-0.9-1.881-0.6c0.58-2.12,1.939-3.25,3.66-3.25c1.73,0,2.15,1.22,2.15,2.72
		c0,2.28-4.631,9.28-7.42,9.28c-1.73,0-2.16-2.551-2.51-3.811c-0.351-1.26-1.041-4.57-1.851-4.78c-0.31-0.05-1.2,0.65-1.2,0.65
		L5.633,10.85z"/>
</g>
</svg>
